<?xml version="1.0" encoding="utf-8"?>
<!-- Generator: Adobe Illustrator 23.1.1, SVG Export Plug-In . SVG Version: 6.00 Build 0)  -->
<svg version="1.1" id="Layer_1" xmlns="http://www.w3.org/2000/svg" xmlns:xlink="http://www.w3.org/1999/xlink" x="0px" y="0px"
	 viewBox="0 0 682.7 682.7" style="enable-background:new 0 0 682.7 682.7;" xml:space="preserve">
<style type="text/css">
	.st0{fill:#DBC8FB;}
</style>
<path class="st0" d="M21,154v374c0,73.4,59.5,133,133,133h374c73.4,0,133-59.5,133-133V154c0-73.4-59.5-133-133-133H154
	C80.5,21,21,80.5,21,154z M408.8,522.3c-157.9,54.5-303.6-91.3-249.1-249.1C178,220,220,178,273.2,159.7
	c157.9-54.5,303.6,91.3,249.1,249.1C504,462,462,504,408.8,522.3z M563.1,147.5c-2.5,13.2-13.4,20.8-24.7,20.8
	c-6.9,0-13.8-2.8-19.2-9c-0.5-0.5-0.9-1.1-1.3-1.7c-5.5-8.4-5.7-18.5-1-26.6c3.3-5.8,8.7-9.9,15.1-11.6c6.4-1.7,13.1-0.8,18.9,2.5
	c8.1,4.7,13,13.5,12.4,23.5C563.3,146.1,563.2,146.8,563.1,147.5z"/>
<path class="st0" d="M341,185.5c-85.7,0-155.5,69.7-155.5,155.5S255.3,496.5,341,496.5S496.5,426.7,496.5,341S426.7,185.5,341,185.5
	z"/>
</svg>
