<?xml version="1.0" encoding="utf-8"?>
<!-- Generator: Adobe Illustrator 23.1.1, SVG Export Plug-In . SVG Version: 6.00 Build 0)  -->
<svg version="1.1" id="Capa_1" xmlns="http://www.w3.org/2000/svg" xmlns:xlink="http://www.w3.org/1999/xlink" x="0px" y="0px"
	 viewBox="0 0 451 451" style="enable-background:new 0 0 451 451;" xml:space="preserve">
<style type="text/css">
	.st0{fill:#181680;stroke:#181680;stroke-width:8.5039;stroke-miterlimit:10;}
</style>
<g>
	<path class="st0" d="M438.5,420.2L333.1,314.8c28.3-32.5,45.4-74.9,45.4-121.2c0-102-83-184.9-184.9-184.9
		c-102,0-184.9,83-184.9,184.9s83,184.9,184.9,184.9c46.3,0,88.7-17.1,121.2-45.4l105.4,105.4c2.5,2.5,5.9,3.8,9.1,3.8
		c3.3,0,6.6-1.2,9.1-3.8C443.5,433.4,443.5,425.2,438.5,420.2z M34.6,193.6c0-87.7,71.3-158.9,158.9-158.9
		c87.7,0,158.9,71.3,158.9,158.9s-71.2,159-158.9,159C106,352.6,34.6,281.3,34.6,193.6z"/>
</g>
</svg>
