<?xml version="1.0" encoding="utf-8"?>
<!-- Generator: Adobe Illustrator 23.1.1, SVG Export Plug-In . SVG Version: 6.00 Build 0)  -->
<svg version="1.1" id="Capa_1" xmlns="http://www.w3.org/2000/svg" xmlns:xlink="http://www.w3.org/1999/xlink" x="0px" y="0px"
	 viewBox="0 0 477.6 339.3" style="enable-background:new 0 0 477.6 339.3;" xml:space="preserve">
<style type="text/css">
	.st0{fill:#FFFFFF;}
</style>
<g>
	<path class="st0" d="M444.8,7.3h-412C17.3,7.3,5,19.7,5,35.1S17.3,63,32.8,63h412c15.5,0,27.8-12.4,27.8-27.8S460.1,7.3,444.8,7.3z
		"/>
	<path class="st0" d="M444.8,141.9h-412C17.3,141.9,5,154.2,5,169.7s12.4,27.8,27.8,27.8h412c15.5,0,27.8-12.4,27.8-27.8
		S460.1,141.9,444.8,141.9z"/>
	<path class="st0" d="M444.8,276.4h-412C17.3,276.4,5,288.7,5,304.2S17.3,332,32.8,332h412c15.5,0,27.8-12.4,27.8-27.8
		S460.1,276.4,444.8,276.4z"/>
</g>
</svg>
