<?xml version="1.0" encoding="utf-8"?>
<!-- Generator: Adobe Illustrator 23.1.1, SVG Export Plug-In . SVG Version: 6.00 Build 0)  -->
<svg version="1.1" id="Layer_1" xmlns="http://www.w3.org/2000/svg" xmlns:xlink="http://www.w3.org/1999/xlink" x="0px" y="0px"
	 viewBox="0 0 114.4 76" style="enable-background:new 0 0 114.4 76;" xml:space="preserve">
<style type="text/css">
	.st0{fill:#19199B;}
</style>
<path class="st0" d="M94.6,30.4c7.6-8.1,12.5-14.8,11.8-19.3c-1.1-7.4-11.9-7.4-14.6-7.4c-10,0-18.3,7.3-18.3,16.8
	c0,4.4,1.8,8.1,5.1,12c-1.3,1.2-2.7,2.4-4.1,3.6c-3-7.1-5.8-14.3-9.5-19C61.2,12.3,52.5,3.7,36,3.7C16.9,3.7,0.5,17.5,0.5,38.5
	c0,20.5,14.4,35.1,35.2,35.1c12.5,0,20.1-4.2,28.9-12.8c1.5-1.6,3-3.2,4.6-4.8c0.7,1.9,1.1,3.1,1.1,3.1c4.9,9.7,11.7,14.5,21.4,14.5
	c12.1,0,20.4-7.8,20.4-18.9C112.2,44.1,104.7,38.8,94.6,30.4z M91.6,15.8c1.7,1.1-0.3,4.2-4.2,8.3c-0.9-1-1.5-2.2-1.5-3.6
	C86,17.8,88.8,14,91.6,15.8z M36,61.4c-13.2,0-23-9.2-23-22.9c0-13.1,10.2-22.7,22.7-22.7c7.8,0,15.2,2.4,20.4,9.7
	s6.3,12.3,8.7,18.7C61.2,47.9,51,61.4,36,61.4z M92.1,61.4c-4.5,0-8-3-11-8.7c0,0-0.9-2.5-2.3-6.2c2.4-2.4,4.8-4.7,7-7
	c2.8,2.5,6.1,5.2,9.8,8.3c2.7,2.2,4.3,5,4.3,7.4C99.8,58.7,96.3,61.4,92.1,61.4z"/>
</svg>
