<?xml version="1.0" encoding="utf-8"?>
<!-- Generator: Adobe Illustrator 23.1.1, SVG Export Plug-In . SVG Version: 6.00 Build 0)  -->
<svg version="1.1" id="Layer_1" xmlns="http://www.w3.org/2000/svg" xmlns:xlink="http://www.w3.org/1999/xlink" x="0px" y="0px"
	 viewBox="0 0 283.5 120.8" style="enable-background:new 0 0 283.5 120.8;" xml:space="preserve">
<style type="text/css">
	.st0{fill:#FFFFFF;stroke:#FFFFFF;stroke-miterlimit:10;}
	.st1{fill:#FFFFFF;}
	.st2{font-family:'Futura-MediumItalic';}
	.st3{font-size:22.0595px;}
	.st4{fill:#FFFFFF;stroke:#FFFFFF;stroke-width:4.252;stroke-miterlimit:10;}
</style>
<path class="st0" d="M94.6,72.6c7.6-8.1,12.5-14.8,11.8-19.3c-1.1-7.4-11.9-7.4-14.6-7.4c-10,0-18.3,7.3-18.3,16.8
	c0,4.4,1.8,8.1,5.1,12c-1.3,1.2-2.7,2.4-4.1,3.6c-3-7.1-5.8-14.3-9.5-19c-3.8-4.7-12.5-13.4-29-13.4c-19.1,0-35.4,13.8-35.4,34.9
	c0,20.5,14.4,35.1,35.2,35.1c12.5,0,20.1-4.2,28.9-12.8c1.5-1.6,3-3.2,4.6-4.8c0.7,1.9,1.1,3.1,1.1,3.1c4.9,9.7,11.7,14.5,21.4,14.5
	c12.1,0,20.4-7.8,20.4-18.9C112.2,86.3,104.7,81,94.6,72.6z M91.6,58c1.7,1.1-0.3,4.2-4.2,8.3c-0.9-1-1.5-2.2-1.5-3.6
	C86,59.9,88.8,56.2,91.6,58z M36,103.6c-13.2,0-23-9.2-23-22.9C13,67.6,23.2,58,35.7,58c7.8,0,15.2,2.4,20.4,9.7s6.3,12.3,8.7,18.7
	C61.2,90.1,51,103.6,36,103.6z M92.1,103.6c-4.5,0-8-3-11-8.7c0,0-0.9-2.5-2.3-6.2c2.4-2.4,4.8-4.7,7-7c2.8,2.5,6.1,5.2,9.8,8.3
	c2.7,2.2,4.3,5,4.3,7.4C99.8,100.8,96.3,103.6,92.1,103.6z"/>
<text transform="matrix(1 0 0 1 -0.1987 22.8863)" class="st1 st2 st3">Community Science Museum</text>
<line class="st4" x1="0.8" y1="34.9" x2="112.2" y2="34.9"/>
</svg>
