<?xml version="1.0" encoding="utf-8"?>
<!-- Generator: Adobe Illustrator 23.1.1, SVG Export Plug-In . SVG Version: 6.00 Build 0)  -->
<svg version="1.1" id="Layer_1" xmlns="http://www.w3.org/2000/svg" xmlns:xlink="http://www.w3.org/1999/xlink" x="0px" y="0px"
	 viewBox="0 0 113.9 87.7" style="enable-background:new 0 0 113.9 87.7;" xml:space="preserve">
<style type="text/css">
	.st0{fill:#0A0482;}
	.st1{fill:#0A0482;stroke:#0A0482;stroke-width:5.6693;stroke-miterlimit:10;}
</style>
<path class="st0" d="M94.6,27.8c7.6-8.1,12.5-14.8,11.8-19.3c-1.1-7.4-11.9-7.4-14.6-7.4c-10,0-18.3,7.3-18.3,16.8
	c0,4.4,1.8,8.1,5.1,12c-1.3,1.2-2.7,2.4-4.1,3.6c-3-7.1-5.8-14.3-9.5-19C61.2,9.7,52.5,1.1,36,1.1C16.9,1.1,0.5,14.9,0.5,35.9
	C0.5,56.4,14.9,71,35.7,71c12.5,0,20.1-4.2,28.9-12.8c1.5-1.6,3-3.2,4.6-4.8c0.7,1.9,1.1,3.1,1.1,3.1C75.2,66.2,82,71,91.7,71
	c12.1,0,20.4-7.8,20.4-18.9C112.2,41.5,104.7,36.2,94.6,27.8z M91.6,13.2c1.7,1.1-0.3,4.2-4.2,8.3c-0.9-1-1.5-2.2-1.5-3.6
	C86,15.2,88.8,11.4,91.6,13.2z M36,58.8c-13.2,0-23-9.2-23-22.9c0-13.1,10.2-22.7,22.7-22.7c7.8,0,15.2,2.4,20.4,9.7
	s6.3,12.3,8.7,18.7C61.2,45.3,51,58.8,36,58.8z M92.1,58.8c-4.5,0-8-3-11-8.7c0,0-0.9-2.5-2.3-6.2c2.4-2.4,4.8-4.7,7-7
	c2.8,2.5,6.1,5.2,9.8,8.3c2.7,2.2,4.3,5,4.3,7.4C99.8,56.1,96.3,58.8,92.1,58.8z"/>
<line class="st1" x1="0.8" y1="83.8" x2="112.2" y2="83.8"/>
</svg>
